<?xml version="1.0" encoding="utf-8"?>
<!-- Generator: Adobe Illustrator 16.0.0, SVG Export Plug-In . SVG Version: 6.00 Build 0)  -->
<!DOCTYPE svg PUBLIC "-//W3C//DTD SVG 1.1//EN" "http://www.w3.org/Graphics/SVG/1.1/DTD/svg11.dtd">
<svg version="1.1" id="iconsavetime" xmlns="http://www.w3.org/2000/svg" xmlns:xlink="http://www.w3.org/1999/xlink" x="0px"
	 y="0px" width="100px" height="100px" viewBox="0 0 100 100" enable-background="new 0 0 100 100" xml:space="preserve">
<path id="fillwhite" fill="#FFFFFF" d="M86.656,9.157H13.344c-1.933,0-3.5,1.567-3.5,3.5v42.635c0,1.933,1.567,3.5,3.5,3.5h17.939
	c-0.31,1.638-0.479,3.324-0.479,5.052c0,14.912,12.088,27,27,27c14.911,0,27-12.088,27-27c0-1.728-0.171-3.414-0.479-5.052h2.329
	c1.935,0,3.5-1.567,3.5-3.5V12.657C90.156,10.725,88.59,9.157,86.656,9.157z"/>
<g id="fillicon">
	<path opacity="0.5" fill="#CFAC5D" enable-background="new    " d="M81.223,50.411c-4.936-6.424-12.69-10.568-21.418-10.568
		c-14.912,0-27,12.089-27,27.001c0,4.893,1.308,9.475,3.582,13.432c4.936,6.425,12.691,10.568,21.417,10.568
		c14.912,0,27-12.089,27-27C84.805,58.951,83.496,54.368,81.223,50.411z M57.805,86.673c-12.609,0-22.83-10.222-22.83-22.83
		c0-12.606,10.221-22.829,22.83-22.829c12.607,0,22.828,10.222,22.828,22.829C80.633,76.451,70.412,86.673,57.805,86.673z"/>
	<path opacity="0.5" fill="#CFAC5D" enable-background="new    " d="M90.109,12.203c-0.148-0.02-0.297-0.046-0.453-0.046H16.344
		c-1.933,0-3.5,1.567-3.5,3.5v42.635c0,0.155,0.026,0.304,0.046,0.454c0.15,0.02,0.298,0.046,0.454,0.046h17.934h0.005
		c0.45-2.375,1.206-4.64,2.232-6.75h-0.002h-9.524v-3.188c0-2.416-1.958-4.374-4.374-4.374h-3.188V23.468h3.188
		c2.416,0,4.374-1.958,4.374-4.374v-3.188h52.023v3.188c0,2.416,1.956,4.374,4.372,4.374h3.188V44.48h-3.188
		c-1.059,0-2.028,0.376-2.784,1.001l-0.007,0.001c3.384,3.645,5.771,8.224,6.732,13.31h0.004h2.325c1.935,0,3.5-1.567,3.5-3.5
		V12.657C90.156,12.502,90.131,12.354,90.109,12.203z"/>
</g>
<g id="line">
	<path fill="none" stroke="#CFAC5D" stroke-width="1.5" stroke-linecap="round" stroke-linejoin="round" stroke-miterlimit="10" d="
		M31.278,58.792H13.344c-1.933,0-3.5-1.567-3.5-3.5V12.657c0-1.933,1.567-3.5,3.5-3.5h73.313c1.934,0,3.5,1.567,3.5,3.5v42.635
		c0,1.933-1.566,3.5-3.5,3.5H84.33"/>
	<path fill="none" stroke="#CFAC5D" stroke-width="1.5" stroke-linecap="round" stroke-linejoin="round" stroke-miterlimit="10" d="
		M77.6,45.481c0.756-0.625,1.728-1.001,2.785-1.001h3.188V23.469h-3.188c-2.416,0-4.373-1.958-4.373-4.374v-3.188H23.989v3.188
		c0,2.416-1.958,4.374-4.374,4.374h-3.188v21.012h3.188c2.416,0,4.374,1.958,4.374,4.374v3.188h9.524"/>
	
		<circle fill="none" stroke="#CFAC5D" stroke-width="1.5" stroke-linecap="round" stroke-linejoin="round" stroke-miterlimit="10" cx="18.256" cy="17.735" r="1.828"/>
	
		<circle fill="none" stroke="#CFAC5D" stroke-width="1.5" stroke-linecap="round" stroke-linejoin="round" stroke-miterlimit="10" cx="24" cy="33.975" r="1.829"/>
	
		<circle fill="none" stroke="#CFAC5D" stroke-width="1.5" stroke-linecap="round" stroke-linejoin="round" stroke-miterlimit="10" cx="76" cy="33.975" r="1.828"/>
	
		<circle fill="none" stroke="#CFAC5D" stroke-width="1.5" stroke-linecap="round" stroke-linejoin="round" stroke-miterlimit="10" cx="81.744" cy="17.735" r="1.828"/>
	
		<circle fill="none" stroke="#CFAC5D" stroke-width="1.5" stroke-linecap="round" stroke-linejoin="round" stroke-miterlimit="10" cx="18.256" cy="50.214" r="1.828"/>
	<path fill="none" stroke="#CFAC5D" stroke-width="1.5" stroke-linecap="round" stroke-linejoin="round" stroke-miterlimit="10" d="
		M80.369,49.01c0.334-0.383,0.826-0.624,1.375-0.624c1.01,0,1.828,0.818,1.828,1.828c0,0.896-0.643,1.64-1.492,1.798"/>
	<path fill="none" stroke="#CFAC5D" stroke-width="1.5" stroke-linecap="round" stroke-linejoin="round" stroke-miterlimit="10" d="
		M37.048,46.571c-3.166-3.254-5.116-7.698-5.116-12.597c0-9.979,8.09-18.067,18.067-18.067c9.979,0,18.069,8.089,18.069,18.067
		c0,1.607-0.211,3.165-0.605,4.648"/>
	
		<circle fill="none" stroke="#CFAC5D" stroke-width="1.5" stroke-linecap="round" stroke-linejoin="round" stroke-miterlimit="10" cx="57.805" cy="63.844" r="27"/>
	
		<circle fill="none" stroke="#CFAC5D" stroke-width="1.5" stroke-linecap="round" stroke-linejoin="round" stroke-miterlimit="10" cx="57.805" cy="63.843" r="22.83"/>
	
		<line fill="none" stroke="#CFAC5D" stroke-width="1.5" stroke-linecap="round" stroke-linejoin="round" stroke-miterlimit="10" x1="57.805" y1="44.629" x2="57.805" y2="47.408"/>
	
		<line fill="none" stroke="#CFAC5D" stroke-width="1.5" stroke-linecap="round" stroke-linejoin="round" stroke-miterlimit="10" x1="57.805" y1="83.059" x2="57.805" y2="80.277"/>
	
		<line fill="none" stroke="#CFAC5D" stroke-width="1.5" stroke-linecap="round" stroke-linejoin="round" stroke-miterlimit="10" x1="77.02" y1="63.843" x2="74.24" y2="63.843"/>
	
		<polyline fill="none" stroke="#CFAC5D" stroke-width="1.5" stroke-linecap="round" stroke-linejoin="round" stroke-miterlimit="10" points="
		66.717,63.843 57.805,63.843 57.805,52.643 	"/>
	
		<line fill="none" stroke="#CFAC5D" stroke-width="1.5" stroke-linecap="round" stroke-linejoin="round" stroke-miterlimit="10" x1="38.59" y1="63.844" x2="41.369" y2="63.844"/>
	
		<line fill="none" stroke="#CFAC5D" stroke-width="1.5" stroke-linecap="round" stroke-linejoin="round" stroke-miterlimit="10" x1="48.197" y1="47.203" x2="49.586" y2="49.61"/>
	
		<line fill="none" stroke="#CFAC5D" stroke-width="1.5" stroke-linecap="round" stroke-linejoin="round" stroke-miterlimit="10" x1="67.412" y1="80.482" x2="66.021" y2="78.076"/>
	
		<line fill="none" stroke="#CFAC5D" stroke-width="1.5" stroke-linecap="round" stroke-linejoin="round" stroke-miterlimit="10" x1="74.445" y1="54.234" x2="72.037" y2="55.625"/>
	
		<line fill="none" stroke="#CFAC5D" stroke-width="1.5" stroke-linecap="round" stroke-linejoin="round" stroke-miterlimit="10" x1="41.164" y1="73.451" x2="43.571" y2="72.063"/>
	
		<line fill="none" stroke="#CFAC5D" stroke-width="1.5" stroke-linecap="round" stroke-linejoin="round" stroke-miterlimit="10" x1="67.412" y1="47.203" x2="66.021" y2="49.609"/>
	
		<line fill="none" stroke="#CFAC5D" stroke-width="1.5" stroke-linecap="round" stroke-linejoin="round" stroke-miterlimit="10" x1="48.197" y1="80.482" x2="49.587" y2="78.077"/>
	
		<line fill="none" stroke="#CFAC5D" stroke-width="1.5" stroke-linecap="round" stroke-linejoin="round" stroke-miterlimit="10" x1="74.445" y1="73.45" x2="72.037" y2="72.061"/>
	
		<line fill="none" stroke="#CFAC5D" stroke-width="1.5" stroke-linecap="round" stroke-linejoin="round" stroke-miterlimit="10" x1="41.164" y1="54.236" x2="43.571" y2="55.626"/>
</g>
</svg>
